<svg xmlns="http://www.w3.org/2000/svg" viewBox="0 0 32 32">
  <!-- Außenfläche -->
  <path d="M30 0C31.1046 0 32 0.895431 32 2V30C32 31.1046 31.1046 32 30 32H2C0.895431 32 0 31.1046 0 30V2C0 0.895431 0 0 2 0H30Z" fill="#f6a500"/>
  <!-- Krone -->
  <path d="M15.9648 5C15.7748 5.00005 15.588 5.05204 15.4238 5.15039C15.2596 5.24878 15.124 5.39057 15.0303 5.56055L9.82812 15.0176L3.55078 11.8906C3.36913 11.7985 3.16534 11.7607 2.96387 11.7822C2.76241 11.8038 2.57048 11.8842 2.41113 12.0127C2.25235 12.1408 2.13185 12.3126 2.06348 12.5078C1.99511 12.7031 1.98143 12.9144 2.02441 13.1172L4.58301 25.127C4.63544 25.3782 4.77165 25.6034 4.96777 25.7627C5.16376 25.9217 5.40762 26.0056 5.65723 26H26.251C26.5009 26.0057 26.7453 25.9219 26.9414 25.7627C27.1376 25.6034 27.2737 25.3782 27.3262 25.127L29.9697 13.1172C30.0187 12.9103 30.0086 12.6932 29.9404 12.4922C29.8722 12.2912 29.7485 12.1151 29.585 11.9844C29.4215 11.8537 29.2249 11.7743 29.0186 11.7559C28.8122 11.7374 28.6049 11.7802 28.4219 11.8799L22.1025 15.0283L16.9004 5.56055C16.8066 5.39054 16.6701 5.24878 16.5059 5.15039C16.3416 5.05207 16.1549 5 15.9648 5Z" fill="black"/>
</svg>
